{"asset":{"version":"2.0","generator":"VECTARY"},"nodes":[{"translation":[-0.1607964975833893,0,0],"scale":[0.001,0.001,0.001],"rotation":[-0.7071067811865475,0,0,0.7071067811865476],"name":"3D Text - M","mesh":0},{"translation":[-0.12016905617713929,0,0],"scale":[0.001,0.001,0.001],"rotation":[-0.7071067811865475,0,0,0.7071067811865476],"name":"3D Text - e","mesh":1},{"translation":[-0.09492247414588928,0,0],"scale":[0.001,0.001,0.001],"rotation":[-0.7071067811865475,0,0,0.7071067811865476],"name":"3D Text - d","mesh":2},{"translation":[-0.06734679055213928,0,0],"scale":[0.001,0.001,0.001],"rotation":[-0.7071067811865475,0,0,0.7071067811865476],"name":"3D Text - i","mesh":3},{"translation":[-0.05596495461463928,0,0],"scale":[0.001,0.001,0.001],"rotation":[-0.7071067811865475,0,0,0.7071067811865476],"name":"3D Text - c","mesh":4},{"translation":[-0.03454161477088928,0,0],"scale":[0.001,0.001,0.001],"rotation":[-0.7071067811865475,0,0,0.7071067811865476],"name":"3D Text - a","mesh":5},{"translation":[-0.009514759302139282,0,0],"scale":[0.001,0.001,0.001],"rotation":[-0.7071067811865475,0,0,0.7071067811865476],"name":"3D Text - l","mesh":6},{"translation":[0.013556529760360718,0,0],"scale":[0.001,0.001,0.001],"rotation":[-0.7071067811865475,0,0,0.7071067811865476],"name":"3D Text - R","mesh":7},{"translation":[0.041373912572860716,0,0],"scale":[0.001,0.001,0.001],"rotation":[-0.7071067811865475,0,0,0.7071067811865476],"name":"3D Text - e","mesh":8},{"translation":[0.06662049460411072,0,0],"scale":[0.001,0.001,0.001],"rotation":[-0.7071067811865475,0,0,0.7071067811865476],"name":"3D Text - a","mesh":9},{"translation":[0.09164735007286072,0,0],"scale":[0.001,0.001,0.001],"rotation":[-0.7071067811865475,0,0,0.7071067811865476],"name":"3D Text - l","mesh":10},{"translation":[0.10302918601036072,0,0],"scale":[0.001,0.001,0.001],"rotation":[-0.7071067811865475,0,0,0.7071067811865476],"name":"3D Text - i","mesh":11},{"translation":[0.11441102194786072,0,0],"scale":[0.001,0.001,0.001],"rotation":[-0.7071067811865475,0,0,0.7071067811865476],"name":"3D Text - t","mesh":12},{"translation":[0.13029725241661072,0,0],"scale":[0.001,0.001,0.001],"rotation":[-0.7071067811865475,0,0,0.7071067811865476],"name":"3D Text - y","mesh":13}],"materials":[{"pbrMetallicRoughness":{"baseColorFactor":[1,1,1,1],"baseColorTexture":{"index":0,"extensions":{"KHR_texture_transform":{"offset":[0,0],"scale":[1,1],"rotation":0}},"texCoord":0},"metallicFactor":0,"roughnessFactor":1},"name":"Fabric","normalTexture":{"index":1,"scale":1,"extensions":{"KHR_texture_transform":{"offset":[0,0],"scale":[1,1],"rotation":0}},"texCoord":0},"emissiveFactor":[0,0,0],"extensions":{},"alphaMode":"OPAQUE","doubleSided":false}],"textures":[{"sampler":0,"source":0},{"sampler":0,"source":1}],"images":[{"uri":"Fabric_009_Color_1.jpg","mimeType":"image/jpeg"},{"uri":"Fabric_009_Normal.jpg","mimeType":"image/jpeg"}],"samplers":[{"wrapS":10497,"wrapT":10497}],"meshes":[{"primitives":[{"mode":4,"attributes":{"POSITION":1,"NORMAL":2,"TEXCOORD_0":3},"material":0,"indices":0}]},{"primitives":[{"mode":4,"attributes":{"POSITION":5,"NORMAL":6,"TEXCOORD_0":7},"material":0,"indices":4}]},{"primitives":[{"mode":4,"attributes":{"POSITION":9,"NORMAL":10,"TEXCOORD_0":11},"material":0,"indices":8}]},{"primitives":[{"mode":4,"attributes":{"POSITION":13,"NORMAL":14,"TEXCOORD_0":15},"material":0,"indices":12}]},{"primitives":[{"mode":4,"attributes":{"POSITION":17,"NORMAL":18,"TEXCOORD_0":19},"material":0,"indices":16}]},{"primitives":[{"mode":4,"attributes":{"POSITION":21,"NORMAL":22,"TEXCOORD_0":23},"material":0,"indices":20}]},{"primitives":[{"mode":4,"attributes":{"POSITION":25,"NORMAL":26,"TEXCOORD_0":27},"material":0,"indices":24}]},{"primitives":[{"mode":4,"attributes":{"POSITION":29,"NORMAL":30,"TEXCOORD_0":31},"material":0,"indices":28}]},{"primitives":[{"mode":4,"attributes":{"POSITION":5,"NORMAL":6,"TEXCOORD_0":7},"material":0,"indices":4}]},{"primitives":[{"mode":4,"attributes":{"POSITION":21,"NORMAL":22,"TEXCOORD_0":23},"material":0,"indices":20}]},{"primitives":[{"mode":4,"attributes":{"POSITION":25,"NORMAL":26,"TEXCOORD_0":27},"material":0,"indices":24}]},{"primitives":[{"mode":4,"attributes":{"POSITION":13,"NORMAL":14,"TEXCOORD_0":15},"material":0,"indices":12}]},{"primitives":[{"mode":4,"attributes":{"POSITION":33,"NORMAL":34,"TEXCOORD_0":35},"material":0,"indices":32}]},{"primitives":[{"mode":4,"attributes":{"POSITION":37,"NORMAL":38,"TEXCOORD_0":39},"material":0,"indices":36}]}],"accessors":[{"bufferView":0,"byteOffset":0,"componentType":5125,"count":204,"type":"SCALAR"},{"bufferView":1,"byteOffset":0,"componentType":5126,"count":140,"max":[41.25899887084961,2.2467983030305784e-15,36.69300079345703],"min":[3.9070000648498535,-15,-1],"type":"VEC3"},{"bufferView":2,"byteOffset":0,"componentType":5126,"count":140,"type":"VEC3"},{"bufferView":3,"byteOffset":0,"componentType":5126,"count":140,"type":"VEC2"},{"bufferView":4,"byteOffset":0,"componentType":5125,"count":972,"type":"SCALAR"},{"bufferView":5,"byteOffset":0,"componentType":5126,"count":646,"max":[26.43899917602539,1.7297237581265202e-15,28.248533248901367],"min":[1.8065667152404785,-15,-1.4878827333450317],"type":"VEC3"},{"bufferView":6,"byteOffset":0,"componentType":5126,"count":646,"type":"VEC3"},{"bufferView":7,"byteOffset":0,"componentType":5126,"count":646,"type":"VEC2"},{"bufferView":8,"byteOffset":0,"componentType":5125,"count":936,"type":"SCALAR"},{"bufferView":9,"byteOffset":0,"componentType":5126,"count":624,"max":[27.343000411987305,2.3873263629359872e-15,38.987998962402344],"min":[1.8090654611587524,-15,-1.4907422065734863],"type":"VEC3"},{"bufferView":10,"byteOffset":0,"componentType":5126,"count":624,"type":"VEC3"},{"bufferView":11,"byteOffset":0,"componentType":5126,"count":624,"type":"VEC2"},{"bufferView":12,"byteOffset":0,"componentType":5125,"count":504,"type":"SCALAR"},{"bufferView":13,"byteOffset":0,"componentType":5126,"count":338,"max":[9.74148941040039,2.3082304263213806e-15,37.69626235961914],"min":[2.953631639480591,-15,-1],"type":"VEC3"},{"bufferView":14,"byteOffset":0,"componentType":5126,"count":338,"type":"VEC3"},{"bufferView":15,"byteOffset":0,"componentType":5126,"count":338,"type":"VEC2"},{"bufferView":16,"byteOffset":0,"componentType":5125,"count":816,"type":"SCALAR"},{"bufferView":17,"byteOffset":0,"componentType":5126,"count":546,"max":[23.3964900970459,1.7294430725836238e-15,28.243947982788086],"min":[1.8067139387130737,-15,-1.4873766899108887],"type":"VEC3"},{"bufferView":18,"byteOffset":0,"componentType":5126,"count":546,"type":"VEC3"},{"bufferView":19,"byteOffset":0,"componentType":5126,"count":546,"type":"VEC2"},{"bufferView":20,"byteOffset":0,"componentType":5125,"count":1212,"type":"SCALAR"},{"bufferView":21,"byteOffset":0,"componentType":5126,"count":810,"max":[24.7549991607666,1.726548019849027e-15,28.19666862487793],"min":[1.2895058393478394,-15,-1.487521767616272],"type":"VEC3"},{"bufferView":22,"byteOffset":0,"componentType":5126,"count":810,"type":"VEC3"},{"bufferView":23,"byteOffset":0,"componentType":5126,"count":810,"type":"VEC2"},{"bufferView":24,"byteOffset":0,"componentType":5125,"count":36,"type":"SCALAR"},{"bufferView":25,"byteOffset":0,"componentType":5126,"count":24,"max":[9.350000381469727,2.3873263629359872e-15,38.987998962402344],"min":[3.296999931335449,-15,-1],"type":"VEC3"},{"bufferView":26,"byteOffset":0,"componentType":5126,"count":24,"type":"VEC3"},{"bufferView":27,"byteOffset":0,"componentType":5126,"count":24,"type":"VEC2"},{"bufferView":28,"byteOffset":0,"componentType":5125,"count":564,"type":"SCALAR"},{"bufferView":29,"byteOffset":0,"componentType":5126,"count":372,"max":[31.826711654663086,2.2467983030305784e-15,36.69300079345703],"min":[3.9070000648498535,-15,-1],"type":"VEC3"},{"bufferView":30,"byteOffset":0,"componentType":5126,"count":372,"type":"VEC3"},{"bufferView":31,"byteOffset":0,"componentType":5126,"count":372,"type":"VEC2"},{"bufferView":32,"byteOffset":0,"componentType":5125,"count":564,"type":"SCALAR"},{"bufferView":33,"byteOffset":0,"componentType":5126,"count":376,"max":[17.601999282836914,2.079389017269344e-15,33.95899963378906],"min":[-0.24300000071525574,-15,-1.4891494512557983],"type":"VEC3"},{"bufferView":34,"byteOffset":0,"componentType":5126,"count":376,"type":"VEC3"},{"bufferView":35,"byteOffset":0,"componentType":5126,"count":376,"type":"VEC2"},{"bufferView":36,"byteOffset":0,"componentType":5125,"count":528,"type":"SCALAR"},{"bufferView":37,"byteOffset":0,"componentType":5126,"count":354,"max":[26.59224510192871,1.6996872286630538e-15,27.757999420166016],"min":[-1.4295320510864258,-15,-13.010273933410645],"type":"VEC3"},{"bufferView":38,"byteOffset":0,"componentType":5126,"count":354,"type":"VEC3"},{"bufferView":39,"byteOffset":0,"componentType":5126,"count":354,"type":"VEC2"}],"bufferViews":[{"buffer":0,"byteOffset":0,"byteLength":816,"target":34963},{"buffer":0,"byteOffset":816,"byteLength":1680,"target":34962},{"buffer":0,"byteOffset":2496,"byteLength":1680,"target":34962},{"buffer":0,"byteOffset":4176,"byteLength":1120,"target":34962},{"buffer":0,"byteOffset":5296,"byteLength":3888,"target":34963},{"buffer":0,"byteOffset":9184,"byteLength":7752,"target":34962},{"buffer":0,"byteOffset":16936,"byteLength":7752,"target":34962},{"buffer":0,"byteOffset":24688,"byteLength":5168,"target":34962},{"buffer":0,"byteOffset":29856,"byteLength":3744,"target":34963},{"buffer":0,"byteOffset":33600,"byteLength":7488,"target":34962},{"buffer":0,"byteOffset":41088,"byteLength":7488,"target":34962},{"buffer":0,"byteOffset":48576,"byteLength":4992,"target":34962},{"buffer":0,"byteOffset":53568,"byteLength":2016,"target":34963},{"buffer":0,"byteOffset":55584,"byteLength":4056,"target":34962},{"buffer":0,"byteOffset":59640,"byteLength":4056,"target":34962},{"buffer":0,"byteOffset":63696,"byteLength":2704,"target":34962},{"buffer":0,"byteOffset":66400,"byteLength":3264,"target":34963},{"buffer":0,"byteOffset":69664,"byteLength":6552,"target":34962},{"buffer":0,"byteOffset":76216,"byteLength":6552,"target":34962},{"buffer":0,"byteOffset":82768,"byteLength":4368,"target":34962},{"buffer":0,"byteOffset":87136,"byteLength":4848,"target":34963},{"buffer":0,"byteOffset":91984,"byteLength":9720,"target":34962},{"buffer":0,"byteOffset":101704,"byteLength":9720,"target":34962},{"buffer":0,"byteOffset":111424,"byteLength":6480,"target":34962},{"buffer":0,"byteOffset":117904,"byteLength":144,"target":34963},{"buffer":0,"byteOffset":118048,"byteLength":288,"target":34962},{"buffer":0,"byteOffset":118336,"byteLength":288,"target":34962},{"buffer":0,"byteOffset":118624,"byteLength":192,"target":34962},{"buffer":0,"byteOffset":118816,"byteLength":2256,"target":34963},{"buffer":0,"byteOffset":121072,"byteLength":4464,"target":34962},{"buffer":0,"byteOffset":125536,"byteLength":4464,"target":34962},{"buffer":0,"byteOffset":130000,"byteLength":2976,"target":34962},{"buffer":0,"byteOffset":132976,"byteLength":2256,"target":34963},{"buffer":0,"byteOffset":135232,"byteLength":4512,"target":34962},{"buffer":0,"byteOffset":139744,"byteLength":4512,"target":34962},{"buffer":0,"byteOffset":144256,"byteLength":3008,"target":34962},{"buffer":0,"byteOffset":147264,"byteLength":2112,"target":34963},{"buffer":0,"byteOffset":149376,"byteLength":4248,"target":34962},{"buffer":0,"byteOffset":153624,"byteLength":4248,"target":34962},{"buffer":0,"byteOffset":157872,"byteLength":2832,"target":34962}],"scene":0,"scenes":[{"nodes":[0,1,2,3,4,5,6,7,8,9,10,11,12,13],"name":"Project Name"}],"extensionsUsed":["KHR_texture_transform"],"buffers":[{"byteLength":160704,"uri":"ProjectName.bin"}]}