{
  "accessors": [
    {
      "bufferView": 1,
      "componentType": 5126,
      "count": 64,
      "max": [
        6.020977973937988,
        1.3846369981765747,
        1.3846379518508911
      ],
      "min": [
        -4.270246982574463,
        -1.3846369981765747,
        -1.3846379518508911
      ],
      "type": "VEC3"
    },
    {
      "bufferView": 1,
      "byteOffset": 768,
      "componentType": 5126,
      "count": 64,
      "max": [
        -0.0,
        1.0,
        1.0
      ],
      "min": [
        -0.0,
        -1.0,
        -1.0
      ],
      "type": "VEC3"
    },
    {
      "bufferView": 0,
      "componentType": 5125,
      "count": 192,
      "type": "SCALAR"
    },
    {
      "bufferView": 1,
      "byteOffset": 1536,
      "componentType": 5126,
      "count": 96,
      "max": [
        2.5953359603881836,
        1.27504301071167,
        1.2750409841537476
      ],
      "min": [
        -4.2666850090026855,
        -1.2750400304794312,
        -1.2750420570373535
      ],
      "type": "VEC3"
    },
    {
      "bufferView": 1,
      "byteOffset": 2688,
      "componentType": 5126,
      "count": 96,
      "max": [
        0.6857031583786011,
        1.0,
        1.0
      ],
      "min": [
        -0.6857031583786011,
        -1.0,
        -1.0
      ],
      "type": "VEC3"
    },
    {
      "bufferView": 0,
      "byteOffset": 768,
      "componentType": 5125,
      "count": 564,
      "type": "SCALAR"
    },
    {
      "bufferView": 1,
      "byteOffset": 3840,
      "componentType": 5126,
      "count": 1382,
      "max": [
        13.465497970581055,
        2.749717950820923,
        1.3846369981765747
      ],
      "min": [
        -5.561906814575195,
        -2.7497200965881348,
        -1.3846379518508911
      ],
      "type": "VEC3"
    },
    {
      "bufferView": 1,
      "byteOffset": 20424,
      "componentType": 5126,
      "count": 1382,
      "max": [
        1.0,
        1.0,
        1.0
      ],
      "min": [
        -1.0,
        -1.0,
        -1.0
      ],
      "type": "VEC3"
    },
    {
      "bufferView": 0,
      "byteOffset": 3024,
      "componentType": 5125,
      "count": 4236,
      "type": "SCALAR"
    },
    {
      "bufferView": 1,
      "byteOffset": 37008,
      "componentType": 5126,
      "count": 256,
      "max": [
        6.382812976837158,
        4.866560935974121,
        1.4358680248260498
      ],
      "min": [
        6.272812843322754,
        -4.86656379699707,
        -1.4358680248260498
      ],
      "type": "VEC3"
    },
    {
      "bufferView": 1,
      "byteOffset": 40080,
      "componentType": 5126,
      "count": 256,
      "max": [
        1.0,
        1.0,
        1.0
      ],
      "min": [
        -1.0,
        -1.0,
        -1.0
      ],
      "type": "VEC3"
    },
    {
      "bufferView": 0,
      "byteOffset": 19968,
      "componentType": 5125,
      "count": 768,
      "type": "SCALAR"
    },
    {
      "bufferView": 1,
      "byteOffset": 43152,
      "componentType": 5126,
      "count": 128,
      "max": [
        -5.561906814575195,
        0.08632999658584595,
        0.08632899820804596
      ],
      "min": [
        -17.026769638061523,
        -0.08632899820804596,
        -0.08632999658584595
      ],
      "type": "VEC3"
    },
    {
      "bufferView": 1,
      "byteOffset": 44688,
      "componentType": 5126,
      "count": 128,
      "max": [
        0.0,
        1.0,
        0.999998927116394
      ],
      "min": [
        -0.6706095337867737,
        -1.0,
        -0.999998927116394
      ],
      "type": "VEC3"
    },
    {
      "bufferView": 0,
      "byteOffset": 23040,
      "componentType": 5125,
      "count": 474,
      "type": "SCALAR"
    }
  ],
  "asset": {
    "extras": {
      "author": "Stakler (https://sketchfab.com/stakler)",
      "license": "CC-BY-4.0 (http://creativecommons.org/licenses/by/4.0/)",
      "source": "https://sketchfab.com/3d-models/syringe-79062c72732d47c4b649ea57c847dd9d",
      "title": "Syringe"
    },
    "generator": "Sketchfab-12.68.0",
    "version": "2.0"
  },
  "bufferViews": [
    {
      "buffer": 0,
      "byteLength": 24936,
      "name": "floatBufferViews",
      "target": 34963
    },
    {
      "buffer": 0,
      "byteLength": 46224,
      "byteOffset": 24936,
      "byteStride": 12,
      "name": "floatBufferViews",
      "target": 34962
    }
  ],
  "buffers": [
    {
      "byteLength": 71160,
      "uri": "scene.bin"
    }
  ],
  "materials": [
    {
      "name": "Material.001",
      "pbrMetallicRoughness": {
        "baseColorFactor": [
          0.64,
          0.64,
          0.64,
          1.0
        ],
        "metallicFactor": 0.0,
        "roughnessFactor": 0.8005241538
      }
    },
    {
      "alphaMode": "BLEND",
      "doubleSided": true,
      "name": "Material.002",
      "pbrMetallicRoughness": {
        "baseColorFactor": [
          0.3772657877,
          0.5826396449,
          0.7839144653,
          0.5
        ],
        "metallicFactor": 0.0709644054,
        "roughnessFactor": 0.2504135328
      }
    },
    {
      "doubleSided": true,
      "name": "None",
      "pbrMetallicRoughness": {
        "baseColorFactor": [
          0.8,
          0.8,
          0.8,
          1.0
        ],
        "metallicFactor": 0.0
      }
    },
    {
      "alphaMode": "BLEND",
      "name": "drug",
      "pbrMetallicRoughness": {
        "baseColorFactor": [
          0.154474,
          0.8,
          0.088528,
          0.516779
        ],
        "metallicFactor": 0.0,
        "roughnessFactor": 0.0
      }
    },
    {
      "name": "needle",
      "pbrMetallicRoughness": {
        "baseColorFactor": [
          0.4723073204,
          0.4723073204,
          0.4723073204,
          1.0
        ],
        "roughnessFactor": 0.1841719525
      }
    }
  ],
  "meshes": [
    {
      "name": "Object_0",
      "primitives": [
        {
          "attributes": {
            "NORMAL": 1,
            "POSITION": 0
          },
          "indices": 2,
          "material": 1,
          "mode": 4
        }
      ]
    },
    {
      "name": "Object_1",
      "primitives": [
        {
          "attributes": {
            "NORMAL": 4,
            "POSITION": 3
          },
          "indices": 5,
          "material": 3,
          "mode": 4
        }
      ]
    },
    {
      "name": "Object_2",
      "primitives": [
        {
          "attributes": {
            "NORMAL": 7,
            "POSITION": 6
          },
          "indices": 8,
          "material": 0,
          "mode": 4
        }
      ]
    },
    {
      "name": "Object_3",
      "primitives": [
        {
          "attributes": {
            "NORMAL": 10,
            "POSITION": 9
          },
          "indices": 11,
          "material": 2,
          "mode": 4
        }
      ]
    },
    {
      "name": "Object_4",
      "primitives": [
        {
          "attributes": {
            "NORMAL": 13,
            "POSITION": 12
          },
          "indices": 14,
          "material": 4,
          "mode": 4
        }
      ]
    }
  ],
  "nodes": [
    {
      "children": [
        1
      ],
      "matrix": [
        1.0,
        0.0,
        0.0,
        0.0,
        0.0,
        2.220446049250313e-16,
        -1.0,
        0.0,
        0.0,
        1.0,
        2.220446049250313e-16,
        0.0,
        0.0,
        0.0,
        0.0,
        1.0
      ],
      "name": "Sketchfab_model"
    },
    {
      "children": [
        2,
        3,
        4,
        5,
        6
      ],
      "name": "syringe.obj.cleaner.materialmerger.gles"
    },
    {
      "mesh": 0,
      "name": "Object_2"
    },
    {
      "mesh": 1,
      "name": "Object_3"
    },
    {
      "mesh": 2,
      "name": "Object_4"
    },
    {
      "mesh": 3,
      "name": "Object_5"
    },
    {
      "mesh": 4,
      "name": "Object_6"
    }
  ],
  "scene": 0,
  "scenes": [
    {
      "name": "Sketchfab_Scene",
      "nodes": [
        0
      ]
    }
  ]
}
