{
  "accessors": [
    {
      "bufferView": 2,
      "componentType": 5126,
      "count": 11593,
      "max": [
        0.38607677817344666,
        2.120607852935791,
        1.1278703212738037
      ],
      "min": [
        -0.38607659935951233,
        0.0006294552586041391,
        -1.1278703212738037
      ],
      "type": "VEC3"
    },
    {
      "bufferView": 2,
      "byteOffset": 139116,
      "componentType": 5126,
      "count": 11593,
      "max": [
        1.0,
        1.0,
        1.0
      ],
      "min": [
        -1.0,
        -1.0,
        -1.0
      ],
      "type": "VEC3"
    },
    {
      "bufferView": 1,
      "componentType": 5126,
      "count": 11593,
      "max": [
        0.9927849173545837,
        0.994902491569519
      ],
      "min": [
        0.00751097034662962,
        0.005224145948886871
      ],
      "type": "VEC2"
    },
    {
      "bufferView": 0,
      "componentType": 5125,
      "count": 9816,
      "type": "SCALAR"
    },
    {
      "bufferView": 2,
      "byteOffset": 278232,
      "componentType": 5126,
      "count": 11593,
      "max": [
        0.38607677817344666,
        2.120607852935791,
        1.1278703212738037
      ],
      "min": [
        -0.38607659935951233,
        0.0006294552586041391,
        -1.1278703212738037
      ],
      "type": "VEC3"
    },
    {
      "bufferView": 2,
      "byteOffset": 417348,
      "componentType": 5126,
      "count": 11593,
      "max": [
        1.0,
        1.0,
        1.0
      ],
      "min": [
        -1.0,
        -1.0,
        -1.0
      ],
      "type": "VEC3"
    },
    {
      "bufferView": 1,
      "byteOffset": 92744,
      "componentType": 5126,
      "count": 11593,
      "max": [
        0.9927849173545837,
        0.994902491569519
      ],
      "min": [
        0.00751097034662962,
        0.005224145948886871
      ],
      "type": "VEC2"
    },
    {
      "bufferView": 0,
      "byteOffset": 39264,
      "componentType": 5125,
      "count": 1482,
      "type": "SCALAR"
    },
    {
      "bufferView": 2,
      "byteOffset": 556464,
      "componentType": 5126,
      "count": 11593,
      "max": [
        0.38607677817344666,
        2.120607852935791,
        1.1278703212738037
      ],
      "min": [
        -0.38607659935951233,
        0.0006294552586041391,
        -1.1278703212738037
      ],
      "type": "VEC3"
    },
    {
      "bufferView": 2,
      "byteOffset": 695580,
      "componentType": 5126,
      "count": 11593,
      "max": [
        1.0,
        1.0,
        1.0
      ],
      "min": [
        -1.0,
        -1.0,
        -1.0
      ],
      "type": "VEC3"
    },
    {
      "bufferView": 1,
      "byteOffset": 185488,
      "componentType": 5126,
      "count": 11593,
      "max": [
        0.9927849173545837,
        0.994902491569519
      ],
      "min": [
        0.00751097034662962,
        0.005224145948886871
      ],
      "type": "VEC2"
    },
    {
      "bufferView": 0,
      "byteOffset": 45192,
      "componentType": 5125,
      "count": 16380,
      "type": "SCALAR"
    },
    {
      "bufferView": 2,
      "byteOffset": 834696,
      "componentType": 5126,
      "count": 11593,
      "max": [
        0.38607677817344666,
        2.120607852935791,
        1.1278703212738037
      ],
      "min": [
        -0.38607659935951233,
        0.0006294552586041391,
        -1.1278703212738037
      ],
      "type": "VEC3"
    },
    {
      "bufferView": 2,
      "byteOffset": 973812,
      "componentType": 5126,
      "count": 11593,
      "max": [
        1.0,
        1.0,
        1.0
      ],
      "min": [
        -1.0,
        -1.0,
        -1.0
      ],
      "type": "VEC3"
    },
    {
      "bufferView": 1,
      "byteOffset": 278232,
      "componentType": 5126,
      "count": 11593,
      "max": [
        0.9927849173545837,
        0.994902491569519
      ],
      "min": [
        0.00751097034662962,
        0.005224145948886871
      ],
      "type": "VEC2"
    },
    {
      "bufferView": 0,
      "byteOffset": 110712,
      "componentType": 5125,
      "count": 6192,
      "type": "SCALAR"
    },
    {
      "bufferView": 2,
      "byteOffset": 1112928,
      "componentType": 5126,
      "count": 11593,
      "max": [
        0.38607677817344666,
        2.120607852935791,
        1.1278703212738037
      ],
      "min": [
        -0.38607659935951233,
        0.0006294552586041391,
        -1.1278703212738037
      ],
      "type": "VEC3"
    },
    {
      "bufferView": 2,
      "byteOffset": 1252044,
      "componentType": 5126,
      "count": 11593,
      "max": [
        1.0,
        1.0,
        1.0
      ],
      "min": [
        -1.0,
        -1.0,
        -1.0
      ],
      "type": "VEC3"
    },
    {
      "bufferView": 1,
      "byteOffset": 370976,
      "componentType": 5126,
      "count": 11593,
      "max": [
        0.9927849173545837,
        0.994902491569519
      ],
      "min": [
        0.00751097034662962,
        0.005224145948886871
      ],
      "type": "VEC2"
    },
    {
      "bufferView": 0,
      "byteOffset": 135480,
      "componentType": 5125,
      "count": 6,
      "type": "SCALAR"
    }
  ],
  "asset": {
    "extras": {
      "author": "forest (https://sketchfab.com/plutovr)",
      "license": "CC-BY-4.0 (http://creativecommons.org/licenses/by/4.0/)",
      "source": "https://sketchfab.com/3d-models/whiteboard-b6a87af6f9a747eaae3ba7f1ba9e0dd7",
      "title": "Whiteboard"
    },
    "generator": "Sketchfab-12.67.0",
    "version": "2.0"
  },
  "bufferViews": [
    {
      "buffer": 0,
      "byteLength": 135504,
      "name": "floatBufferViews",
      "target": 34963
    },
    {
      "buffer": 0,
      "byteLength": 463720,
      "byteOffset": 135504,
      "byteStride": 8,
      "name": "floatBufferViews",
      "target": 34962
    },
    {
      "buffer": 0,
      "byteLength": 1391160,
      "byteOffset": 599224,
      "byteStride": 12,
      "name": "floatBufferViews",
      "target": 34962
    }
  ],
  "buffers": [
    {
      "byteLength": 1990384,
      "uri": "scene.bin"
    }
  ],
  "materials": [
    {
      "name": "mat_WerkMetal01",
      "pbrMetallicRoughness": {
        "baseColorFactor": [
          0.735294,
          0.735294,
          0.735294,
          1.0
        ],
        "metallicFactor": 0.57,
        "roughnessFactor": 0.65
      }
    },
    {
      "name": "mat_WerkMetalPurple01",
      "pbrMetallicRoughness": {
        "baseColorFactor": [
          0.838235,
          0.879513,
          1.0,
          1.0
        ],
        "metallicFactor": 0.78
      }
    },
    {
      "name": "mat_WerkPlasticBlack01",
      "pbrMetallicRoughness": {
        "baseColorFactor": [
          0.101961,
          0.101961,
          0.101961,
          1.0
        ],
        "metallicFactor": 0.0,
        "roughnessFactor": 0.91
      }
    },
    {
      "name": "mat_WerkPlasticGrey01",
      "pbrMetallicRoughness": {
        "baseColorFactor": [
          0.372549,
          0.372549,
          0.372549,
          1.0
        ],
        "metallicFactor": 0.0,
        "roughnessFactor": 0.87
      }
    },
    {
      "name": "mat_WerkScreen01",
      "pbrMetallicRoughness": {
        "baseColorFactor": [
          0.850981,
          0.850981,
          0.850981,
          1.0
        ],
        "metallicFactor": 0.6937878695401278,
        "roughnessFactor": 0.78
      }
    }
  ],
  "meshes": [
    {
      "name": "Object_0",
      "primitives": [
        {
          "attributes": {
            "NORMAL": 1,
            "POSITION": 0,
            "TEXCOORD_0": 2
          },
          "indices": 3,
          "material": 0,
          "mode": 4
        }
      ]
    },
    {
      "name": "Object_1",
      "primitives": [
        {
          "attributes": {
            "NORMAL": 5,
            "POSITION": 4,
            "TEXCOORD_0": 6
          },
          "indices": 7,
          "material": 1,
          "mode": 4
        }
      ]
    },
    {
      "name": "Object_2",
      "primitives": [
        {
          "attributes": {
            "NORMAL": 9,
            "POSITION": 8,
            "TEXCOORD_0": 10
          },
          "indices": 11,
          "material": 2,
          "mode": 4
        }
      ]
    },
    {
      "name": "Object_3",
      "primitives": [
        {
          "attributes": {
            "NORMAL": 13,
            "POSITION": 12,
            "TEXCOORD_0": 14
          },
          "indices": 15,
          "material": 3,
          "mode": 4
        }
      ]
    },
    {
      "name": "Object_4",
      "primitives": [
        {
          "attributes": {
            "NORMAL": 17,
            "POSITION": 16,
            "TEXCOORD_0": 18
          },
          "indices": 19,
          "material": 4,
          "mode": 4
        }
      ]
    }
  ],
  "nodes": [
    {
      "children": [
        1
      ],
      "matrix": [
        1.0,
        0.0,
        0.0,
        0.0,
        0.0,
        2.220446049250313e-16,
        -1.0,
        0.0,
        0.0,
        1.0,
        2.220446049250313e-16,
        0.0,
        0.0,
        0.0,
        0.0,
        1.0
      ],
      "name": "Sketchfab_model"
    },
    {
      "children": [
        2
      ],
      "name": "root"
    },
    {
      "children": [
        3
      ],
      "matrix": [
        1.0,
        0.0,
        0.0,
        0.0,
        0.0,
        2.220446049250313e-16,
        1.0,
        0.0,
        0.0,
        -1.0,
        2.220446049250313e-16,
        0.0,
        0.0,
        0.0,
        0.0,
        1.0
      ],
      "name": "Correction matrix"
    },
    {
      "children": [
        4
      ],
      "name": "GLTF_SceneRootNode"
    },
    {
      "children": [
        5
      ],
      "matrix": [
        -1.0,
        0.0,
        -8.742277657347586e-08,
        0.0,
        0.0,
        1.0,
        0.0,
        0.0,
        8.742277657347586e-08,
        0.0,
        -1.0,
        0.0,
        0.0,
        0.0,
        0.0,
        1.0
      ],
      "name": "UnityGlTF_correctionMatrix_0"
    },
    {
      "children": [
        6,
        7,
        8,
        9,
        10
      ],
      "matrix": [
        1.0,
        0.0,
        0.0,
        0.0,
        0.0,
        1.0,
        -4.371138828673793e-08,
        0.0,
        0.0,
        4.371138828673793e-08,
        1.0,
        0.0,
        0.0,
        0.0,
        0.0,
        1.0
      ],
      "name": "node_WerkWhiteboard01_-115990_1"
    },
    {
      "mesh": 0,
      "name": "Object_6"
    },
    {
      "mesh": 1,
      "name": "Object_7"
    },
    {
      "mesh": 2,
      "name": "Object_8"
    },
    {
      "mesh": 3,
      "name": "Object_9"
    },
    {
      "mesh": 4,
      "name": "Object_10"
    }
  ],
  "scene": 0,
  "scenes": [
    {
      "name": "Sketchfab_Scene",
      "nodes": [
        0
      ]
    }
  ]
}
